<svg width="23" height="23" viewBox="0 0 23 23" fill="none" xmlns="http://www.w3.org/2000/svg">
<path fill-rule="evenodd" clip-rule="evenodd" d="M11.5288 1.91665C13.6946 1.92623 15.7646 2.78873 17.2788 4.3029C18.8025 5.82665 19.6554 7.88706 19.6459 10.0241V10.0721C19.5884 12.9758 17.9592 15.6496 15.9275 17.7387C14.7775 18.9175 13.5029 19.9621 12.1134 20.8437C11.7396 21.16 11.1934 21.16 10.8196 20.8437C8.75919 19.5021 6.93835 17.8154 5.46252 15.8508C4.16877 14.145 3.43085 12.0941 3.35419 9.95706C3.37335 5.50081 7.03419 1.90706 11.5288 1.91665ZM11.5288 12.7075C12.2092 12.7075 12.8609 12.4487 13.34 11.9791C13.8384 11.4904 14.1172 10.8397 14.1172 10.1583C14.1172 8.73998 12.9567 7.59956 11.5288 7.59956C10.1009 7.59956 8.95086 8.73998 8.95086 10.1583C8.95086 11.5584 10.0817 12.6883 11.5 12.7075H11.5288Z" fill="#200E32"/>
</svg>
