<svg width="19" height="19" viewBox="0 0 19 19" fill="none" xmlns="http://www.w3.org/2000/svg">
<g clip-path="url(#clip0_333_787)">
<path d="M6.47511 3.74552V12.599C5.91147 12.0861 5.16288 11.7732 4.34271 11.7732C2.59374 11.7732 1.17084 13.1961 1.17084 14.945C1.17084 16.694 2.59374 18.1169 4.34271 18.1169C6.08952 18.1169 7.5108 16.6975 7.51445 14.9517H7.51459V8.62524L16.6235 5.88793V10.4651C16.0599 9.95236 15.3113 9.63928 14.4911 9.63928C12.7421 9.63928 11.3192 11.0622 11.3192 12.8112C11.3192 14.5601 12.7421 15.983 14.4911 15.983C16.2341 15.983 17.6531 14.5697 17.6627 12.8289H17.663V0.383423L6.47511 3.74552Z" fill="white"/>
</g>
<defs>
<clipPath id="clip0_333_787">
<rect width="17.7335" height="17.7335" fill="white" transform="translate(0.547363 0.417725)"/>
</clipPath>
</defs>
</svg>
