<svg width="17" height="20" viewBox="0 0 17 20" fill="none" xmlns="http://www.w3.org/2000/svg">
<ellipse cx="8.61424" cy="5.67153" rx="4.37986" ry="4.37986" stroke="#807A7A" stroke-width="1.5" stroke-linecap="round" stroke-linejoin="round"/>
<path fill-rule="evenodd" clip-rule="evenodd" d="M1.66676 16.1429C1.66559 15.835 1.73445 15.5309 1.86814 15.2535C2.28766 14.4145 3.47073 13.9698 4.45242 13.7684C5.16042 13.6173 5.87819 13.5164 6.6004 13.4664C7.93752 13.3489 9.28236 13.3489 10.6195 13.4664C11.3416 13.517 12.0594 13.6179 12.7674 13.7684C13.7491 13.9698 14.9322 14.3725 15.3517 15.2535C15.6206 15.8189 15.6206 16.4753 15.3517 17.0407C14.9322 17.9217 13.7491 18.3245 12.7674 18.5175C12.0603 18.6748 11.3423 18.7786 10.6195 18.8279C9.53117 18.9202 8.43779 18.937 7.34716 18.8783C7.09544 18.8783 6.85212 18.8783 6.6004 18.8279C5.88033 18.7792 5.16504 18.6754 4.46081 18.5175C3.47073 18.3245 2.29605 17.9217 1.86814 17.0407C1.73513 16.7601 1.66634 16.4534 1.66676 16.1429Z" stroke="#807A7A" stroke-width="1.5" stroke-linecap="round" stroke-linejoin="round"/>
</svg>
