<svg width="22" height="22" viewBox="0 0 22 22" fill="none" xmlns="http://www.w3.org/2000/svg">
<path fill-rule="evenodd" clip-rule="evenodd" d="M11.2604 13.4185C12.74 13.4185 13.9394 12.2191 13.9394 10.7395C13.9394 9.25997 12.74 8.06055 11.2604 8.06055C9.78087 8.06055 8.58145 9.25997 8.58145 10.7395C8.58145 12.2191 9.78087 13.4185 11.2604 13.4185Z" stroke="#767676" stroke-width="1.5" stroke-linecap="round" stroke-linejoin="round"/>
<path fill-rule="evenodd" clip-rule="evenodd" d="M17.8686 13.4185C17.6254 13.9696 17.7421 14.6132 18.1632 15.0438L18.2168 15.0973C18.5522 15.4323 18.7406 15.8869 18.7406 16.3609C18.7406 16.8349 18.5522 17.2895 18.2168 17.6245C17.8818 17.9599 17.4273 18.1483 16.9532 18.1483C16.4792 18.1483 16.0247 17.9599 15.6897 17.6245L15.6361 17.5709C15.2055 17.1497 14.5619 17.033 14.0108 17.2762C13.471 17.5076 13.1202 18.0374 13.1178 18.6247V18.7765C13.1178 19.7628 12.3182 20.5625 11.3319 20.5625C10.3455 20.5625 9.54587 19.7628 9.54587 18.7765V18.6961C9.53172 18.0913 9.14927 17.5565 8.58144 17.3477C8.03038 17.1045 7.38678 17.2212 6.95619 17.6424L6.90261 17.696C6.56762 18.0313 6.11305 18.2198 5.63903 18.2198C5.16501 18.2198 4.71044 18.0313 4.37544 17.696C4.04008 17.361 3.85164 16.9064 3.85164 16.4324C3.85164 15.9584 4.04008 15.5038 4.37544 15.1688L4.42902 15.1152C4.85022 14.6846 4.96692 14.041 4.72371 13.49C4.49237 12.9502 3.96256 12.5993 3.37529 12.597H3.22348C2.23711 12.597 1.4375 11.7974 1.4375 10.811C1.4375 9.82461 2.23711 9.025 3.22348 9.025H3.30385C3.9087 9.01085 4.44343 8.62839 4.65227 8.06057C4.89548 7.50951 4.77878 6.86591 4.35759 6.43532L4.30401 6.38174C3.96864 6.04675 3.7802 5.59217 3.7802 5.11816C3.7802 4.64414 3.96864 4.18957 4.30401 3.85457C4.639 3.5192 5.09357 3.33077 5.56759 3.33077C6.04161 3.33077 6.49618 3.5192 6.83117 3.85457L6.88475 3.90815C7.31534 4.32934 7.95894 4.44604 8.51 4.20284H8.58144C9.12123 3.97149 9.47209 3.44169 9.47443 2.85442V2.70261C9.47443 1.71624 10.274 0.916626 11.2604 0.916626C12.2468 0.916626 13.0464 1.71624 13.0464 2.70261V2.78298C13.0487 3.37025 13.3996 3.90005 13.9394 4.1314C14.4905 4.3746 15.1341 4.25791 15.5646 3.83671L15.6182 3.78313C15.9532 3.44776 16.4078 3.25933 16.8818 3.25933C17.3558 3.25933 17.8104 3.44776 18.1454 3.78313C18.4808 4.11813 18.6692 4.5727 18.6692 5.04672C18.6692 5.52073 18.4808 5.97531 18.1454 6.3103L18.0918 6.36388C17.6706 6.79447 17.5539 7.43807 17.7971 7.98913V8.06057C18.0285 8.60035 18.5583 8.95122 19.1455 8.95356H19.2973C20.2837 8.95356 21.0833 9.75317 21.0833 10.7395C21.0833 11.7259 20.2837 12.5255 19.2973 12.5255H19.217C18.6297 12.5279 18.0999 12.8787 17.8686 13.4185Z" stroke="#767676" stroke-width="1.5" stroke-linecap="round" stroke-linejoin="round"/>
</svg>
