<svg width="19" height="19" viewBox="0 0 19 19" fill="none" xmlns="http://www.w3.org/2000/svg">
<path d="M8.80459 2.79151C8.68887 2.02952 8.45487 1.25819 8.11402 0.504517C6.344 0.753408 4.74189 1.52471 3.46844 2.65778L7.86787 7.05724C8.72742 5.9641 9.05964 4.47103 8.80459 2.79151V2.79151Z" fill="white"/>
<path d="M7.87248 8.53003C6.82178 9.39758 5.46995 9.85083 3.95114 9.85086C3.54874 9.85086 3.13478 9.81907 2.71146 9.75482C1.97192 9.64249 1.22646 9.4318 0.494882 9.1312C0.494085 9.1816 0.493011 9.23196 0.493011 9.28256C0.493011 11.5441 1.34017 13.6074 2.7338 15.1738L8.62501 9.28256L7.87248 8.53003Z" fill="white"/>
<path d="M7.13329 7.79041L2.73383 3.39099C1.60076 4.66444 0.829458 6.26651 0.580566 8.03653C1.33427 8.37738 2.10564 8.61145 2.86752 8.72717C4.54715 8.98226 6.04019 8.64997 7.13329 7.79041V7.79041Z" fill="white"/>
<path d="M15.852 9.83825C14.1725 9.58312 12.6794 9.91542 11.5863 10.775L15.9857 15.1744C17.1188 13.9009 17.8901 12.2989 18.139 10.5288C17.3854 10.188 16.614 9.954 15.852 9.83825Z" fill="white"/>
<path d="M10.112 10.7708L9.35966 10.0184L3.46844 15.9096C5.03477 17.3033 7.09812 18.1504 9.35966 18.1504C9.41026 18.1504 9.46062 18.1494 9.51102 18.1485C9.21045 17.417 8.99972 16.6715 8.8874 15.932C8.58053 13.9109 9.01462 12.0998 10.112 10.7708V10.7708Z" fill="white"/>
<path d="M8.60733 7.79591L9.35969 8.54826L15.2509 2.65705C13.6846 1.26338 11.6212 0.41626 9.35969 0.41626C9.30908 0.41626 9.25872 0.417333 9.20833 0.418165C9.5089 1.1497 9.71962 1.8951 9.83194 2.63474C10.1388 4.65577 9.70473 6.46687 8.60733 7.79591Z" fill="white"/>
<path d="M9.91454 15.7752C10.0302 16.5371 10.2643 17.3085 10.6051 18.0622C12.3752 17.8133 13.9772 17.042 15.2507 15.909L10.8512 11.5095C9.99171 12.6027 9.65949 14.0957 9.91454 15.7752Z" fill="white"/>
<path d="M10.8471 10.0346C12.1761 8.93716 13.9872 8.50311 16.0082 8.80998C16.7479 8.92231 17.4933 9.13306 18.2248 9.4336C18.2256 9.3832 18.2267 9.33284 18.2267 9.28221C18.2267 7.02067 17.3795 4.95732 15.9859 3.39099L10.0947 9.28224L10.8471 10.0346Z" fill="white"/>
</svg>
